# xmcd
# Copyright (C) 1995-1998 Ti Kan
#
# Track frame offsets:
#       150
#       26405
#       47971
#       61083
#       62908
#       78193
#       87166
#       132011
#       149741
#       180741
#       204049
#       233283
#       273918
#       302236
#       335122
#
# Disc length: 4775 seconds
#
# Revision: 1
# Processed by: cddbd v1.5.2PL0 Copyright (c) Steve Scherf et al.
# Submitted via: CD-Transfer v1.0
#
DISCID=ca12a50f
DTITLE=Mahavishnu Orchestra - John Mclaughlin
DYEAR=73
DGENRE=
TTITLE0=Birds Of Pray
TTITLE1=Miles Beyond
TTITLE2=Celestial Terrestialcomputers
TTITLE3=Sapphire Bullets Of Pure Love
TTITLE4=Thosand Island Park
TTITLE5=Hope
TTITLE6=One Word
TTITLE7=Open Country Joe
TTITLE8=Meeting Of The Spirits
TTITLE9=Dawn
TTITLE10=Moonward Race, The
TTITLE11=A Lotus On Irish Streams
TTITLE12=Vital Transformation
TTITLE13=Dance Of Maya, The
TTITLE14=You Know, You Know
EXTD=
EXTT0=
EXTT1=
EXTT2=
EXTT3=
EXTT4=
EXTT5=
EXTT6=
EXTT7=
EXTT8=
EXTT9=
EXTT10=
EXTT11=
EXTT12=
EXTT13=
EXTT14=
PLAYORDER=
